Coordinates
version=1
nRows=13
nColumns=40
inDegrees=yes

Units are S.I. units (second, meters, Newtons, ...)
Angles are in degrees.

endheader
time	pelvis_tilt	pelvis_list	pelvis_rotation	pelvis_tx	pelvis_ty	pelvis_tz	hip_flexion_r	hip_adduction_r	hip_rotation_r	knee_angle_r	knee_angle_r_beta	ankle_angle_r	subtalar_angle_r	mtp_angle_r	hip_flexion_l	hip_adduction_l	hip_rotation_l	knee_angle_l	knee_angle_l_beta	ankle_angle_l	subtalar_angle_l	mtp_angle_l	lumbar_extension	lumbar_bending	lumbar_rotation	arm_flex_r	arm_add_r	arm_rot_r	elbow_flex_r	pro_sup_r	wrist_flex_r	wrist_dev_r	arm_flex_l	arm_add_l	arm_rot_l	elbow_flex_l	pro_sup_l	wrist_flex_l	wrist_dev_l
      0.51000000	     -4.88911282	     -1.88455353	      4.00964690	     -0.11628740	      0.95241268	      1.47696816	     27.15389714	     -9.85028797	    -19.48504313	    -43.64495573	     -0.76174818	      1.88983833	    -12.78105026	     15.79965442	     -0.30484402	     -4.57661271	     10.91040589	     -9.73058618	     -0.16983077	      9.98596020	      6.25915164	     -0.34169919	     -0.03476762	     -0.36938154	     -7.64231310	     -6.99116343	    -12.53622846	    -15.14495416	     23.31304426	     89.95437384	      0.00000000	      0.00000000	     -0.67596805	     11.87901461	      8.00934414	     18.93512701	     89.95437384	      0.00000000	      0.00000000
      0.52000000	     -4.34906257	     -2.22681282	      4.83299805	     -0.10276974	      0.95136208	      1.47590852	     27.15301204	     -9.52269465	    -20.50438757	    -40.71321801	     -0.71057970	      2.16458665	    -11.71786750	     15.57388655	     -2.09756611	     -4.04192713	     10.93309089	     -9.12211490	     -0.15921094	     10.11464025	      5.23032558	     -1.47767307	     -0.74497471	      0.01354423	     -8.51939184	     -7.50461628	    -12.46682494	    -15.26854534	     22.29609924	     89.95437384	      0.00000000	      0.00000000	      0.49832177	     11.84627251	      7.36267218	     20.61161462	     89.95437384	      0.00000000	      0.00000000
      0.53000000	     -4.20837848	     -2.55395089	      5.52353835	     -0.08926311	      0.94933858	      1.47532798	     27.57665435	     -9.09875237	    -21.21626816	    -37.67271885	     -0.65751298	      2.13490510	    -10.76318314	     14.87381224	     -3.29402415	     -3.40318232	     11.87071505	     -8.66520509	     -0.15123636	      8.48739997	      3.72665586	    -11.10523538	     -0.95898804	      0.31511518	     -9.28968823	     -7.97256112	    -12.43062423	    -15.43334473	     21.13926039	     89.95437384	      0.00000000	      0.00000000	      1.50469522	     11.91508156	      6.45714725	     22.47935157	     89.95437384	      0.00000000	      0.00000000
      0.54000000	     -4.55409011	     -2.44519270	      6.17484761	     -0.07651470	      0.94639615	      1.47456049	     28.67676460	     -9.16545615	    -21.31392190	    -34.76535000	     -0.60676982	      1.93738053	     -9.74320743	     14.65695945	     -4.01741167	     -3.45050868	     11.63867154	     -8.26428732	     -0.14423902	      8.91641685	      3.10753346	    -11.07341926	     -0.73295770	      0.08890192	    -10.04904246	     -8.47617834	    -12.36885858	    -15.37983535	     20.08960045	     89.95437384	      0.00000000	      0.00000000	      2.49735903	     11.97778772	      6.02135036	     24.32843903	     89.95437384	      0.00000000	      0.00000000
      0.55000000	     -3.81651695	     -2.74872619	      6.98314007	     -0.06251262	      0.94487543	      1.47383198	     28.16748803	     -8.82520596	    -22.48728129	    -31.34685794	     -0.54710588	      1.99041016	     -8.63102158	     14.72030566	     -6.08339984	     -2.82461230	     11.78808619	     -7.57133706	     -0.13214476	      9.15093169	      2.13354311	    -11.48652157	     -1.62583163	      0.44590295	    -10.83826038	     -8.79308734	    -12.29519331	    -16.12052508	     18.92043307	     89.95437384	      0.00000000	      0.00000000	      3.41073013	     12.25472030	      4.60221608	     26.64992164	     89.95437384	      0.00000000	      0.00000000
      0.56000000	     -3.52425652	     -2.85401256	      7.60527094	     -0.04867671	      0.94240795	      1.47339346	     28.22298577	     -8.61467404	    -23.14686731	    -28.04017953	     -0.48939346	      2.05889197	     -7.38931705	     14.39687003	     -7.55428618	     -2.40337402	     12.61497074	     -7.10182323	     -0.12395020	      9.27110750	      0.31055344	    -12.24928353	     -2.02326193	      0.52468459	    -11.44209506	     -9.24926523	    -12.27655309	    -16.67102165	     17.93769410	     89.95437384	      0.00000000	      0.00000000	      4.30861795	     12.54767940	      3.29247395	     28.88362707	     89.95437384	      0.00000000	      0.00000000
      0.57000000	     -3.30838515	     -2.88290914	      8.14483142	     -0.03490691	      0.93969047	      1.47311045	     28.35710272	     -8.44716332	    -23.78895851	    -24.73891075	     -0.43177545	      2.11098558	     -6.36383483	     14.17366864	     -8.87962793	     -2.09888704	     13.24889590	     -6.77909780	     -0.11831758	      9.38113325	     -0.98361274	    -12.83114306	     -2.36033734	      0.51951178	    -12.04956897	     -9.60109828	    -12.28872238	    -17.24763504	     16.96448351	     89.95437384	      0.00000000	      0.00000000	      5.10255524	     12.82507407	      2.51204605	     31.18880648	     89.95437384	      0.00000000	      0.00000000
      0.58000000	     -3.17717069	     -3.05250554	      8.59407272	     -0.02096939	      0.93664029	      1.47328920	     28.56524721	     -8.08053362	    -24.45547584	    -21.45790845	     -0.37451115	      1.97844813	     -5.20313874	     12.34149060	    -10.00662966	     -1.48177267	     14.95580665	     -6.61704669	     -0.11548925	      9.04871932	     -3.91618903	    -14.92411026	     -2.57450666	      0.63994400	    -12.52373052	    -10.03965066	    -12.28764424	    -18.15640949	     16.20661160	     89.95437384	      0.00000000	      0.00000000	      5.94097350	     13.17989803	      1.48719032	     33.37526138	     89.95437384	      0.00000000	      0.00000000
      0.59000000	     -3.47624903	     -2.81671008	      8.92671307	     -0.00741069	      0.93298986	      1.47317002	     29.37170539	     -8.20606453	    -24.71744503	    -18.58536510	     -0.32437581	      2.25696244	     -3.97195895	     12.25947943	    -10.85714187	     -1.63921409	     15.17167550	     -6.19524869	     -0.10812749	      9.26614249	     -4.26311483	    -15.09687821	     -2.37263787	      0.25395649	    -13.00123859	    -10.47567850	    -12.39314752	    -18.41983185	     15.49576495	     89.95437384	      0.00000000	      0.00000000	      6.59989998	     13.48224512	      1.01126156	     35.66702512	     89.95437384	      0.00000000	      0.00000000
      0.60000000	     -3.01166974	     -2.99682102	      9.27748341	      0.00700715	      0.93058924	      1.47327757	     29.12454950	     -7.82797569	    -25.79222531	    -15.56072127	     -0.27158582	      2.57988943	     -1.39940482	     11.79998757	    -12.51850933	     -1.10753887	     16.05337763	     -5.75957839	     -0.10052361	      9.16040549	     -5.36895242	    -15.60496330	     -2.94710344	      0.47795344	    -13.30161295	    -10.73956839	    -12.46881373	    -19.76982308	     14.67391309	     89.95437384	      0.00000000	      0.00000000	      7.44072821	     13.83849337	     -0.00076002	     37.82044231	     89.95437384	      0.00000000	      0.00000000
      0.61000000	     -3.06825633	     -3.14865509	      9.55276757	      0.02139897	      0.92736550	      1.47374741	     29.56434746	     -7.58040000	    -26.65654756	    -13.01854865	     -0.22721654	      2.31454931	      1.63469885	      8.57720192	    -13.27176863	     -0.45358404	     17.76783533	     -6.04850460	     -0.10556632	      8.70294054	     -8.47222947	    -16.92870093	     -2.91335592	      0.55613103	    -13.52780048	    -11.12797894	    -12.51120055	    -21.46598542	     14.03576957	     89.95437384	      0.00000000	      0.00000000	      8.13015126	     14.14830816	     -0.65001482	     39.97601775	     89.95437384	      0.00000000	      0.00000000
      0.62000000	     -3.45048664	     -2.99470661	      9.68178564	      0.03556958	      0.92394131	      1.47415562	     30.32928405	     -7.50124855	    -26.56047973	    -10.75882490	     -0.18777692	      2.10717134	      3.24494244	      8.42077820	    -13.86705972	     -0.43304187	     17.81044702	     -6.04381252	     -0.10548443	      8.63890106	     -8.67619931	    -17.01871431	     -2.54905150	      0.23277337	    -13.78750602	    -11.52551900	    -12.70332332	    -21.87856894	     13.52541590	     89.95437384	      0.00000000	      0.00000000	      8.66629640	     14.42008238	     -0.89270329	     42.04158637	     89.95437384	      0.00000000	      0.00000000
      0.63000000	     -3.26414462	     -3.17881011	     10.00274000	      0.05050262	      0.92144512	      1.47464100	     30.52990366	     -7.32771748	    -27.75941399	     -9.50058756	     -0.16581653	      1.96197164	      6.78944740	      7.18103654	    -14.84225901	      0.28552790	     18.31915062	     -6.45081202	     -0.11258791	      8.37523872	     -9.78149106	    -17.44585332	     -2.75457827	      0.40322254	    -13.91677077	    -11.83394747	    -12.75754033	    -24.07184844	     12.91937211	     89.95437384	      0.00000000	      0.00000000	      9.37334771	     14.70109209	     -1.55277520	     43.97595087	     89.95437384	      0.00000000	      0.00000000
